ffmpeg started on 2016-12-06 at 20:53:01
Report written to "Output/x264/results/ffmpeg/crowd_run_2160p50medium6000k.log"
Command line:
Tools/ffmpeg/ffmpeg -benchmark -y -i Input/y4m/crowd_run_2160p50.y4m -c:v libx264 -preset medium -b:v 6000k -an Output/x264/encoded/crowd_run_2160p50medium6000k.mkv
ffmpeg version N-82227-gdb23fde Copyright (c) 2000-2016 the FFmpeg developers
  built with gcc 5.4.0 (Ubuntu 5.4.0-6ubuntu1~16.04.2) 20160609
  configuration: --prefix=/home/jaroslav/ffmpeg_build --pkg-config-flags=--static --extra-cflags=-I/home/jaroslav/ffmpeg_build/include --extra-ldflags=-L/home/jaroslav/ffmpeg_build/lib --bindir=/home/jaroslav/bin --enable-gpl --enable-libass --enable-libfdk-aac --enable-libfreetype --enable-libmp3lame --enable-libopus --enable-libtheora --enable-libvorbis --enable-libvpx --enable-libx264 --enable-libx265 --enable-nvenc --enable-libmfx --enable-libxvid --enable-libgsm --enable-libopencore-amrnb --enable-version3 --enable-nonfree
  libavutil      55. 35.100 / 55. 35.100
  libavcodec     57. 66.101 / 57. 66.101
  libavformat    57. 57.100 / 57. 57.100
  libavdevice    57.  2.100 / 57.  2.100
  libavfilter     6. 66.100 /  6. 66.100
  libswscale      4.  3.100 /  4.  3.100
  libswresample   2.  4.100 /  2.  4.100
  libpostproc    54.  2.100 / 54.  2.100
Input #0, yuv4mpegpipe, from 'Input/y4m/crowd_run_2160p50.y4m':
  Duration: 00:00:10.00, start: 0.000000, bitrate: 4976642 kb/s
    Stream #0:0: Video: rawvideo (I420 / 0x30323449), yuv420p(progressive), 3840x2160, SAR 1:1 DAR 16:9, 50 fps, 50 tbr, 50 tbn, 50 tbc
[libx264 @ 0x32eb1c0] using SAR=1/1
[libx264 @ 0x32eb1c0] using cpu capabilities: MMX2 SSE2Fast SSSE3 SSE4.2 AVX FMA3 AVX2 LZCNT BMI2
[libx264 @ 0x32eb1c0] profile High, level 5.2
[libx264 @ 0x32eb1c0] 264 - core 148 - H.264/MPEG-4 AVC codec - Copyleft 2003-2016 - http://www.videolan.org/x264.html - options: cabac=1 ref=3 deblock=1:0:0 analyse=0x3:0x113 me=hex subme=7 psy=1 psy_rd=1.00:0.00 mixed_ref=1 me_range=16 chroma_me=1 trellis=1 8x8dct=1 cqm=0 deadzone=21,11 fast_pskip=1 chroma_qp_offset=-2 threads=6 lookahead_threads=1 sliced_threads=0 nr=0 decimate=1 interlaced=0 bluray_compat=0 constrained_intra=0 bframes=3 b_pyramid=2 b_adapt=1 b_bias=0 direct=1 weightb=1 open_gop=0 weightp=2 keyint=250 keyint_min=25 scenecut=40 intra_refresh=0 rc_lookahead=40 rc=abr mbtree=1 bitrate=6000 ratetol=1.0 qcomp=0.60 qpmin=0 qpmax=69 qpstep=4 ip_ratio=1.40 aq=1:1.00
Output #0, matroska, to 'Output/x264/encoded/crowd_run_2160p50medium6000k.mkv':
  Metadata:
    encoder         : Lavf57.57.100
    Stream #0:0: Video: h264 (libx264) (H264 / 0x34363248), yuv420p, 3840x2160 [SAR 1:1 DAR 16:9], q=-1--1, 6000 kb/s, 50 fps, 1k tbn, 50 tbc
    Metadata:
      encoder         : Lavc57.66.101 libx264
    Side data:
      cpb: bitrate max/min/avg: 0/0/6000000 buffer size: 0 vbv_delay: -1
Stream mapping:
  Stream #0:0 -> #0:0 (rawvideo (native) -> h264 (libx264))
Press [q] to stop, [?] for help
frame=   19 fps=0.0 q=0.0 size=       0kB time=00:00:00.00 bitrate=N/A speed=   0x    frame=   33 fps= 32 q=0.0 size=       0kB time=00:00:00.00 bitrate=N/A speed=   0x    frame=   44 fps= 28 q=0.0 size=       0kB time=00:00:00.00 bitrate=N/A speed=   0x    frame=   47 fps= 13 q=0.0 size=       0kB time=00:00:00.00 bitrate=N/A speed=   0x    frame=   53 fps= 12 q=39.0 size=       1kB time=00:00:00.00 bitrate=5872.0kbits/s speed=0.000227x    frame=   57 fps= 11 q=42.0 size=       1kB time=00:00:00.08 bitrate=  72.5kbits/s speed=0.0163x    frame=   64 fps= 12 q=55.0 size=       1kB time=00:00:00.22 bitrate=  26.6kbits/s speed=0.0402x    frame=   71 fps= 12 q=53.0 size=       1kB time=00:00:00.36 bitrate=  16.3kbits/s speed=0.0593x    frame=   79 fps= 12 q=53.0 size=       1kB time=00:00:00.52 bitrate=  11.3kbits/s speed=0.0783x    frame=   85 fps= 12 q=53.0 size=       1kB time=00:00:00.64 bitrate=   9.2kbits/s speed=0.0896x    frame=   92 fps= 12 q=53.0 size=       1kB time=00:00:00.78 bitrate=   7.5kbits/s speed=0.102x    frame=   98 fps= 12 q=53.0 size=       1kB time=00:00:00.90 bitrate=   6.5kbits/s speed=0.109x    frame=  106 fps= 12 q=52.0 size=       1kB time=00:00:01.06 bitrate=   5.5kbits/s speed=0.119x    frame=  113 fps= 12 q=52.0 size=       1kB time=00:00:01.20 bitrate=   4.9kbits/s speed=0.128x    frame=  119 fps= 12 q=52.0 size=       1kB time=00:00:01.32 bitrate=   4.4kbits/s speed=0.133x    frame=  126 fps= 12 q=52.0 size=       1kB time=00:00:01.46 bitrate=   4.0kbits/s speed=0.139x    frame=  134 fps= 12 q=52.0 size=       1kB time=00:00:01.62 bitrate=   3.6kbits/s speed=0.146x    frame=  142 fps= 12 q=52.0 size=       1kB time=00:00:01.78 bitrate=   3.3kbits/s speed=0.152x    frame=  150 fps= 12 q=51.0 size=       1kB time=00:00:01.94 bitrate=   3.0kbits/s speed=0.159x    frame=  155 fps= 12 q=51.0 size=       1kB time=00:00:02.04 bitrate=   2.9kbits/s speed=0.159x    frame=  160 fps= 12 q=51.0 size=       1kB time=00:00:02.14 bitrate=   2.7kbits/s speed=0.161x    frame=  166 fps= 12 q=51.0 size=       1kB time=00:00:02.26 bitrate=   2.6kbits/s speed=0.163x    frame=  174 fps= 12 q=51.0 size=       1kB time=00:00:02.42 bitrate=   2.4kbits/s speed=0.168x    frame=  180 fps= 12 q=51.0 size=       1kB time=00:00:02.54 bitrate=   2.3kbits/s speed=0.17x    frame=  186 fps= 12 q=51.0 size=       1kB time=00:00:02.66 bitrate=   2.2kbits/s speed=0.172x    frame=  194 fps= 12 q=51.0 size=       1kB time=00:00:02.82 bitrate=   2.1kbits/s speed=0.175x    frame=  202 fps= 12 q=51.0 size=       1kB time=00:00:02.98 bitrate=   2.0kbits/s speed=0.179x    frame=  207 fps= 12 q=51.0 size=       1kB time=00:00:03.08 bitrate=   1.9kbits/s speed=0.18x    frame=  214 fps= 12 q=51.0 size=       1kB time=00:00:03.22 bitrate=   1.8kbits/s speed=0.182x    frame=  221 fps= 12 q=51.0 size=       1kB time=00:00:03.36 bitrate=   1.7kbits/s speed=0.184x    frame=  229 fps= 12 q=51.0 size=       1kB time=00:00:03.52 bitrate=   1.7kbits/s speed=0.187x    frame=  236 fps= 12 q=51.0 size=       1kB time=00:00:03.66 bitrate=   1.6kbits/s speed=0.189x    frame=  242 fps= 12 q=51.0 size=       1kB time=00:00:03.78 bitrate=   1.6kbits/s speed=0.19x    frame=  250 fps= 12 q=51.0 size=       1kB time=00:00:03.94 bitrate=   1.5kbits/s speed=0.191x    frame=  257 fps= 12 q=51.0 size=       1kB time=00:00:04.08 bitrate=   1.4kbits/s speed=0.192x    frame=  265 fps= 12 q=51.0 size=       1kB time=00:00:04.24 bitrate=   1.4kbits/s speed=0.195x    frame=  271 fps= 12 q=51.0 size=       1kB time=00:00:04.36 bitrate=   1.3kbits/s speed=0.195x    frame=  276 fps= 12 q=51.0 size=       1kB time=00:00:04.46 bitrate=   1.3kbits/s speed=0.195x    frame=  282 fps= 12 q=51.0 size=       1kB time=00:00:04.58 bitrate=   1.3kbits/s speed=0.195x    frame=  290 fps= 12 q=51.0 size=       1kB time=00:00:04.74 bitrate=   1.2kbits/s speed=0.197x    frame=  297 fps= 12 q=51.0 size=       1kB time=00:00:04.88 bitrate=   1.2kbits/s speed=0.191x    frame=  306 fps= 12 q=51.0 size=    3838kB time=00:00:05.06 bitrate=6212.4kbits/s speed=0.193x    frame=  313 fps= 12 q=51.0 size=    3838kB time=00:00:05.20 bitrate=6045.1kbits/s speed=0.194x    frame=  319 fps= 12 q=51.0 size=    3838kB time=00:00:05.32 bitrate=5908.8kbits/s speed=0.195x    frame=  325 fps= 12 q=51.0 size=    3838kB time=00:00:05.44 bitrate=5778.5kbits/s speed=0.195x    frame=  332 fps= 12 q=51.0 size=    3838kB time=00:00:05.58 bitrate=5633.5kbits/s speed=0.195x    frame=  339 fps= 12 q=51.0 size=    3838kB time=00:00:05.72 bitrate=5495.7kbits/s speed=0.196x    frame=  347 fps= 12 q=51.0 size=    3838kB time=00:00:05.88 bitrate=5346.2kbits/s speed=0.197x    frame=  355 fps= 12 q=51.0 size=    3838kB time=00:00:06.04 bitrate=5204.6kbits/s speed=0.198x    frame=  362 fps= 12 q=51.0 size=    3838kB time=00:00:06.18 bitrate=5086.7kbits/s speed= 0.2x    frame=  368 fps= 12 q=51.0 size=    3838kB time=00:00:06.30 bitrate=4989.8kbits/s speed= 0.2x    frame=  375 fps= 12 q=51.0 size=    3838kB time=00:00:06.44 bitrate=4881.4kbits/s speed= 0.2x    frame=  383 fps= 12 q=51.0 size=    3838kB time=00:00:06.60 bitrate=4763.0kbits/s speed=0.202x    frame=  389 fps= 12 q=51.0 size=    3838kB time=00:00:06.72 bitrate=4678.0kbits/s speed=0.202x    frame=  396 fps= 12 q=51.0 size=    3838kB time=00:00:06.86 bitrate=4582.5kbits/s speed=0.202x    frame=  404 fps= 12 q=51.0 size=    3838kB time=00:00:07.02 bitrate=4478.1kbits/s speed=0.203x    frame=  409 fps= 12 q=51.0 size=    3838kB time=00:00:07.12 bitrate=4415.2kbits/s speed=0.203x    frame=  416 fps= 12 q=51.0 size=    3838kB time=00:00:07.26 bitrate=4330.1kbits/s speed=0.204x    frame=  424 fps= 12 q=51.0 size=    3838kB time=00:00:07.42 bitrate=4236.7kbits/s speed=0.205x    frame=  427 fps= 12 q=51.0 size=    3838kB time=00:00:07.48 bitrate=4202.8kbits/s speed=0.203x    frame=  435 fps= 12 q=51.0 size=    3838kB time=00:00:07.64 bitrate=4114.7kbits/s speed=0.205x    frame=  439 fps= 12 q=51.0 size=    3838kB time=00:00:07.72 bitrate=4072.1kbits/s speed=0.204x    frame=  444 fps= 12 q=51.0 size=    3838kB time=00:00:07.82 bitrate=4020.0kbits/s speed=0.204x    frame=  451 fps= 12 q=51.0 size=    3838kB time=00:00:07.96 bitrate=3949.4kbits/s speed=0.205x    frame=  458 fps= 12 q=51.0 size=    3838kB time=00:00:08.10 bitrate=3881.1kbits/s speed=0.205x    frame=  465 fps= 12 q=51.0 size=    3838kB time=00:00:08.24 bitrate=3815.2kbits/s speed=0.205x    frame=  471 fps= 12 q=51.0 size=    3838kB time=00:00:08.36 bitrate=3760.4kbits/s speed=0.205x    frame=  479 fps= 12 q=51.0 size=    3838kB time=00:00:08.52 bitrate=3689.8kbits/s speed=0.206x    frame=  487 fps= 12 q=51.0 size=    3838kB time=00:00:08.68 bitrate=3621.8kbits/s speed=0.207x    frame=  494 fps= 12 q=51.0 size=    3838kB time=00:00:08.82 bitrate=3564.3kbits/s speed=0.208x    frame=  500 fps= 12 q=51.0 size=    3838kB time=00:00:08.94 bitrate=3516.5kbits/s speed=0.208x    frame=  500 fps= 11 q=-1.0 Lsize=    7499kB time=00:00:09.94 bitrate=6179.2kbits/s speed=0.215x    
video:7494kB audio:0kB subtitle:0kB other streams:0kB global headers:0kB muxing overhead: 0.058040%
bench: utime=156.612s
bench: maxrss=1857832kB
[libx264 @ 0x32eb1c0] frame I:2     Avg QP:40.09  size:199279
[libx264 @ 0x32eb1c0] frame P:126   Avg QP:49.41  size: 28102
[libx264 @ 0x32eb1c0] frame B:372   Avg QP:50.48  size: 10037
[libx264 @ 0x32eb1c0] consecutive B-frames:  0.8%  0.0%  0.0% 99.2%
[libx264 @ 0x32eb1c0] mb I  I16..4: 27.2% 64.6%  8.2%
[libx264 @ 0x32eb1c0] mb P  I16..4:  3.8%  3.9%  0.0%  P16..4: 24.4%  1.8%  1.4%  0.0%  0.0%    skip:64.7%
[libx264 @ 0x32eb1c0] mb B  I16..4:  0.0%  0.0%  0.0%  B16..8: 24.4%  0.3%  0.0%  direct: 0.3%  skip:74.9%  L0:41.4% L1:58.5% BI: 0.1%
[libx264 @ 0x32eb1c0] final ratefactor: 42.90
[libx264 @ 0x32eb1c0] 8x8 transform intra:52.5% inter:97.8%
[libx264 @ 0x32eb1c0] coded y,uvDC,uvAC intra: 13.8% 48.4% 9.4% inter: 1.6% 4.3% 0.0%
[libx264 @ 0x32eb1c0] i16 v,h,dc,p: 47% 25%  8% 19%
[libx264 @ 0x32eb1c0] i8 v,h,dc,ddl,ddr,vr,hd,vl,hu: 15%  8% 51%  5%  4%  5%  4%  5%  3%
[libx264 @ 0x32eb1c0] i4 v,h,dc,ddl,ddr,vr,hd,vl,hu: 24% 17% 12%  9%  9%  8%  8%  7%  6%
[libx264 @ 0x32eb1c0] i8c dc,h,v,p: 88%  4%  7%  1%
[libx264 @ 0x32eb1c0] Weighted P-Frames: Y:1.6% UV:0.8%
[libx264 @ 0x32eb1c0] ref P L0: 70.2%  1.9% 20.3%  7.5%  0.1%
[libx264 @ 0x32eb1c0] ref B L0: 94.7%  4.0%  1.4%
[libx264 @ 0x32eb1c0] ref B L1: 98.5%  1.5%
[libx264 @ 0x32eb1c0] kb/s:6138.66
